<svg width="42" height="42" viewBox="0 0 42 42" fill="none" xmlns="http://www.w3.org/2000/svg">
<rect width="42" height="42" rx="21" fill="#00F5C1"/>
<path d="M29.1016 29.4537H25.6337V24.0196C25.6337 22.7237 25.6074 21.0561 23.8266 21.0561C22.0184 21.0561 21.7423 22.4661 21.7423 23.9239V29.4537H18.2744V18.2791H21.6057V19.8023H21.6506C22.116 18.9241 23.2479 17.9971 24.9389 17.9971C28.4527 17.9971 29.1026 20.3097 29.1026 23.3199V29.4537H29.1016ZM14.3576 16.75C13.2413 16.75 12.3446 15.8465 12.3446 14.735C12.3446 13.6246 13.2423 12.722 14.3576 12.722C15.47 12.722 16.3716 13.6246 16.3716 14.735C16.3716 15.8465 15.469 16.75 14.3576 16.75ZM16.0965 29.4537H12.6188V18.2791H16.0965V29.4537ZM30.8365 9.49707H10.878C9.92272 9.49707 9.1499 10.2523 9.1499 11.1842V31.2286C9.1499 32.1614 9.92272 32.9157 10.878 32.9157H30.8336C31.7879 32.9157 32.5686 32.1614 32.5686 31.2286V11.1842C32.5686 10.2523 31.7879 9.49707 30.8336 9.49707H30.8365Z" fill="#213576"/>
</svg>
