<svg width="17" height="18" viewBox="0 0 17 18" fill="none" xmlns="http://www.w3.org/2000/svg">
<path d="M1 3.35173C1 2.9097 1.17559 2.48577 1.48816 2.17321C1.80072 1.86065 2.22464 1.68506 2.66667 1.68506H5.4C5.57483 1.68519 5.74519 1.74031 5.88696 1.8426C6.02874 1.94489 6.13475 2.08919 6.19 2.25506L7.43833 5.99923C7.50158 6.18951 7.4941 6.39622 7.41726 6.58143C7.34042 6.76664 7.19938 6.91794 7.02 7.00756L5.13917 7.94923C6.0611 9.98967 7.69538 11.624 9.73583 12.5459L10.6775 10.6651C10.7671 10.4857 10.9184 10.3446 11.1036 10.2678C11.2888 10.191 11.4956 10.1835 11.6858 10.2467L15.43 11.4951C15.596 11.5503 15.7404 11.6565 15.8427 11.7984C15.945 11.9404 16 12.1109 16 12.2859V15.0184C16 15.4604 15.8244 15.8843 15.5118 16.1969C15.1993 16.5095 14.7754 16.6851 14.3333 16.6851H13.5C6.59667 16.6851 1 11.0884 1 4.18506V3.35173Z" stroke="#00F5C1" stroke-width="2" stroke-linecap="round" stroke-linejoin="round"/>
</svg>
